Coordinates
version=1
nRows=43
nColumns=12
inDegrees=yes

Units are S.I. units (second, meters, Newtons, ...)
Angles are in degrees

endheader
time	SC_y	SC_z	SC_x	AC_y	AC_z	AC_x	GH_y	GH_z	GH_yy	EL_x	PS_y
       0.0              -21.31          9.263          13.06          56.78          3.697          12.97          89.76          5.568          92.61          48.97          133.4
   0.01191              -21.31          9.261          13.07          56.78          3.694          12.97          89.77          5.572          92.61          48.98          133.4
   0.02383              -21.31           9.26          13.08          56.78           3.69          12.97          89.78          5.575           92.6          48.99          133.4
   0.03574              -21.31          9.258          13.09          56.78          3.686          12.97          89.79          5.578          92.59          48.99          133.4
   0.04765              -21.31          9.256          13.09          56.78          3.682          12.97           89.8          5.582          92.58           49.0          133.5
   0.05957              -21.31          9.254           13.1          56.78          3.678          12.97          89.81          5.586          92.57          49.01          133.5
   0.07148              -21.31          9.252          13.11          56.77          3.673          12.97          89.83          5.591          92.56          49.01          133.5
    0.0834              -21.31           9.25          13.13          56.77          3.668          12.97          89.84          5.595          92.55          49.02          133.5
   0.09531              -21.31          9.247          13.14          56.77          3.663          12.97          89.86            5.6          92.54          49.03          133.5
    0.1072              -21.31          9.244          13.15          56.77          3.657          12.97          89.87          5.606          92.53          49.04          133.5
    0.1191              -21.31          9.242          13.16          56.77          3.651          12.97          89.89          5.611          92.51          49.05          133.5
    0.1311              -21.31          9.238          13.18          56.77          3.645          12.97          89.91          5.618           92.5          49.06          133.5
     0.143              -21.31          9.235           13.2          56.77          3.638          12.97          89.93          5.624          92.48          49.08          133.5
    0.1549              -21.31          9.231          13.21          56.77           3.63          12.97          89.96          5.631          92.47          49.09          133.5
    0.1668              -21.31          9.228          13.23          56.77          3.622          12.97          89.98          5.639          92.45           49.1          133.5
    0.1787              -21.31          9.223          13.25          56.77          3.613          12.97          90.01          5.648          92.43          49.12          133.5
    0.1906              -21.31          9.219          13.27          56.77          3.603          12.97          90.04          5.657          92.41          49.14          133.5
    0.2025              -21.31          9.214           13.3          56.76          3.593          12.97          90.07          5.667          92.39          49.15          133.6
    0.2144              -21.31          9.208          13.32          56.76          3.581          12.97           90.1          5.678          92.36          49.17          133.6
    0.2264              -21.31          9.202          13.35          56.76          3.568          12.97          90.14           5.69          92.33           49.2          133.6
    0.2383              -21.31          9.196          13.38          56.76          3.555          12.97          90.18          5.703           92.3          49.22          133.6
    0.2502              -21.31          9.189          13.42          56.76          3.539          12.97          90.23          5.717          92.27          49.25          133.6
    0.2621              -21.31          9.181          13.46          56.76          3.522          12.97          90.28          5.733          92.23          49.28          133.6
     0.274              -21.31          9.172           13.5          56.75          3.504          12.97          90.33          5.751          92.19          49.31          133.7
    0.2859              -21.31          9.162          13.55          56.75          3.483          12.97          90.39           5.77          92.15          49.34          133.7
    0.2978              -21.32          9.151           13.6          56.75           3.46          12.97          90.46          5.792          92.09          49.38          133.7
    0.3098              -21.32          9.139          13.66          56.74          3.434          12.97          90.54          5.817          92.04          49.43          133.7
    0.3217              -21.32          9.125          13.73          56.74          3.405          12.97          90.63          5.844          91.97          49.48          133.8
    0.3336              -21.32          9.109           13.8          56.74          3.372          12.97          90.72          5.875           91.9          49.54          133.8
    0.3455              -21.32          9.091          13.89          56.73          3.334          12.97          90.84          5.911          91.82           49.6          133.8
    0.3574              -21.32          9.071          13.98          56.73          3.291          12.97          90.96          5.951          91.72          49.67          133.9
    0.3693              -21.32          9.048          14.09          56.72          3.242          12.97          91.11          5.997          91.62          49.76          134.0
    0.3812              -21.33          9.021          14.22          56.71          3.185          12.97          91.28          6.051          91.49          49.86          134.0
    0.3932              -21.33           8.99          14.37          56.71           3.12          12.97          91.47          6.113          91.35          49.97          134.1
    0.4051              -21.33          8.954          14.55           56.7          3.042          12.97           91.7          6.186          91.18           50.1          134.2
     0.417              -21.34          8.911          14.76          56.68          2.952          12.97          91.97          6.272          90.98          50.26          134.3
    0.4289              -21.34          8.859           15.0          56.67          2.844          12.97           92.3          6.373          90.74          50.45          134.4
    0.4408              -21.34          8.798           15.3          56.66          2.714          12.97          92.68          6.496          90.46          50.67          134.6
    0.4527              -21.35          8.724          15.65          56.64          2.557          12.97          93.15          6.643          90.11          50.94          134.7
    0.4646              -21.36          8.634          16.09          56.61          2.366          12.97          93.72          6.824           89.7          51.27          134.9
    0.4765              -21.37          8.522          16.62          56.58           2.13          12.97          94.42          7.047          89.18          51.68          135.2
    0.4885              -21.38          8.383          17.29          56.55          1.836          12.97           95.3          7.324          88.53          52.19          135.5
    0.5004              -21.39          8.207          18.14           56.5          1.465          12.97           96.4          7.674          87.72          52.83          136.0
